<svg width="65" height="65" viewBox="0 0 65 65" fill="none" xmlns="http://www.w3.org/2000/svg">
<path d="M51.1079 42.9263H51.1123V18.9639L40.2227 18.9639V42.5174L40.2217 42.5174C40.2217 46.7806 36.7657 50.2366 32.5026 50.2366C28.9512 50.2366 25.9601 47.8384 25.0601 44.5732C24.7572 43.4739 23.8603 42.5342 22.72 42.5342H16.0056C14.8461 42.5342 13.902 43.4912 14.0562 44.6403C15.2821 53.7792 23.0757 61.1272 32.5026 61.1272C42.6438 61.1272 50.8904 53.0154 51.1079 42.9263Z" fill="black"/>
<path d="M13.8919 20.3366H13.8875V5.94047C13.8875 4.79848 14.8132 3.87271 15.9552 3.87271H22.7094C23.8514 3.87271 24.7772 4.79848 24.7772 5.94047V19.9276L24.7781 19.9277C24.7781 24.1908 28.2341 27.6468 32.4973 27.6468C33.7668 27.6468 34.9648 27.3404 36.0212 26.7974V38.2043C34.8802 38.423 33.7021 38.5374 32.4973 38.5374C22.356 38.5374 14.1094 30.4256 13.8919 20.3366Z" fill="black"/>
<path d="M51.1124 9.30674C51.1124 12.3079 48.6795 14.7408 45.6783 14.7408C42.6772 14.7408 40.2443 12.3079 40.2443 9.30674C40.2443 6.30561 42.6772 3.87271 45.6783 3.87271C48.6795 3.87271 51.1124 6.30561 51.1124 9.30674Z" fill="black"/>
</svg>
