<svg xmlns="http://www.w3.org/2000/svg" viewBox="0 0 125.44 125.44"><title>Asset 2</title><g id="Layer_2" data-name="Layer 2"><g id="Layer_1-2" data-name="Layer 1"><path d="M60.72,50.75a231.53,231.53,0,0,0-13.6-21.19A36.83,36.83,0,0,0,26.81,55.22,137.78,137.78,0,0,0,60.72,50.75Z"/><path d="M65.24,63.09l1.44-.42c-.93-2.09-1.91-4.19-3-6.24A133.81,133.81,0,0,1,26,61.65v1.12a36.61,36.61,0,0,0,9.4,24.5C36.26,85.87,46.32,69.2,65.24,63.09Z"/><path d="M87,35.33A37.08,37.08,0,0,0,54.1,27.09,195.93,195.93,0,0,1,67.8,48.56C80.84,43.67,86.38,36.26,87,35.33Z"/><path d="M69,68.78C48.33,76,40.87,90.34,40.22,91.69a36.54,36.54,0,0,0,36.85,4.8,152.06,152.06,0,0,0-7.83-27.81C69.15,68.73,69.1,68.73,69,68.78Z"/><path d="M100.69,0H24.75A24.75,24.75,0,0,0,0,24.75v75.94a24.75,24.75,0,0,0,24.75,24.75h75.94a24.75,24.75,0,0,0,24.75-24.75V24.75A24.75,24.75,0,0,0,100.69,0Zm-38,105.67a43,43,0,1,1,43-42.95A43,43,0,0,1,62.72,105.67Z"/><path d="M76,67a157.28,157.28,0,0,1,7.13,26.13,36.43,36.43,0,0,0,15.7-24.55A53.55,53.55,0,0,0,76,67Z"/><path d="M70.64,54c.84,1.72,1.68,3.54,2.42,5.31.28.65.51,1.3.79,1.91,12.21-1.54,24.32.93,25.53,1.16a36.52,36.52,0,0,0-8.29-22.82C90.3,40.59,84.15,48.51,70.64,54Z"/></g></g></svg>